<mxfile host="app.diagrams.net" modified="2023-04-05T04:35:30.717Z" agent="Mozilla/5.0 (Windows NT 10.0; Win64; x64) AppleWebKit/537.36 (KHTML, like Gecko) Chrome/110.0.0.0 YaBrowser/23.3.0.2246 Yowser/2.5 Safari/537.36" etag="hp8YeZbCCzrjSFYF3Igq" version="21.1.4" type="device">
  <diagram id="C5RBs43oDa-KdzZeNtuy" name="Page-1">
    <mxGraphModel dx="2074" dy="1143" grid="1" gridSize="10" guides="1" tooltips="1" connect="1" arrows="1" fold="1" page="1" pageScale="1" pageWidth="827" pageHeight="1169" math="0" shadow="0">
      <root>
        <mxCell id="WIyWlLk6GJQsqaUBKTNV-0" />
        <mxCell id="WIyWlLk6GJQsqaUBKTNV-1" parent="WIyWlLk6GJQsqaUBKTNV-0" />
        <mxCell id="CQcg4G0rpS13cacDEzsN-0" value="Loader" style="swimlane;fontStyle=1;align=center;verticalAlign=top;childLayout=stackLayout;horizontal=1;startSize=26;horizontalStack=0;resizeParent=1;resizeParentMax=0;resizeLast=0;collapsible=1;marginBottom=0;whiteSpace=wrap;html=1;" vertex="1" parent="WIyWlLk6GJQsqaUBKTNV-1">
          <mxGeometry x="80" y="80" width="250" height="180" as="geometry" />
        </mxCell>
        <mxCell id="CQcg4G0rpS13cacDEzsN-1" value="- NameInt: map&amp;lt;string, int&amp;gt;&lt;br&gt;- ..." style="text;strokeColor=none;fillColor=none;align=left;verticalAlign=top;spacingLeft=4;spacingRight=4;overflow=hidden;rotatable=0;points=[[0,0.5],[1,0.5]];portConstraint=eastwest;whiteSpace=wrap;html=1;" vertex="1" parent="CQcg4G0rpS13cacDEzsN-0">
          <mxGeometry y="26" width="250" height="34" as="geometry" />
        </mxCell>
        <mxCell id="CQcg4G0rpS13cacDEzsN-2" value="" style="line;strokeWidth=1;fillColor=none;align=left;verticalAlign=middle;spacingTop=-1;spacingLeft=3;spacingRight=3;rotatable=0;labelPosition=right;points=[];portConstraint=eastwest;strokeColor=inherit;" vertex="1" parent="CQcg4G0rpS13cacDEzsN-0">
          <mxGeometry y="60" width="250" height="8" as="geometry" />
        </mxCell>
        <mxCell id="CQcg4G0rpS13cacDEzsN-3" value="+&amp;nbsp;Loader(string): Loader&lt;br&gt;+ GetName(): vector&amp;lt;string&amp;gt;&lt;br&gt;+ GetType(string): int&lt;br&gt;+ GetInt(string): int&lt;br&gt;+ ...&lt;br&gt;+ SetInt(string, int): void&lt;br&gt;+ ..." style="text;strokeColor=none;fillColor=none;align=left;verticalAlign=top;spacingLeft=4;spacingRight=4;overflow=hidden;rotatable=0;points=[[0,0.5],[1,0.5]];portConstraint=eastwest;whiteSpace=wrap;html=1;" vertex="1" parent="CQcg4G0rpS13cacDEzsN-0">
          <mxGeometry y="68" width="250" height="112" as="geometry" />
        </mxCell>
        <mxCell id="CQcg4G0rpS13cacDEzsN-4" value="ParamsBase" style="swimlane;fontStyle=1;align=center;verticalAlign=top;childLayout=stackLayout;horizontal=1;startSize=26;horizontalStack=0;resizeParent=1;resizeParentMax=0;resizeLast=0;collapsible=1;marginBottom=0;whiteSpace=wrap;html=1;" vertex="1" parent="WIyWlLk6GJQsqaUBKTNV-1">
          <mxGeometry x="80" y="360" width="250" height="200" as="geometry" />
        </mxCell>
        <mxCell id="CQcg4G0rpS13cacDEzsN-5" value="- NameInt: map&amp;lt;string, int&amp;gt;&lt;br&gt;- ..." style="text;strokeColor=none;fillColor=none;align=left;verticalAlign=top;spacingLeft=4;spacingRight=4;overflow=hidden;rotatable=0;points=[[0,0.5],[1,0.5]];portConstraint=eastwest;whiteSpace=wrap;html=1;" vertex="1" parent="CQcg4G0rpS13cacDEzsN-4">
          <mxGeometry y="26" width="250" height="34" as="geometry" />
        </mxCell>
        <mxCell id="CQcg4G0rpS13cacDEzsN-6" value="" style="line;strokeWidth=1;fillColor=none;align=left;verticalAlign=middle;spacingTop=-1;spacingLeft=3;spacingRight=3;rotatable=0;labelPosition=right;points=[];portConstraint=eastwest;strokeColor=inherit;" vertex="1" parent="CQcg4G0rpS13cacDEzsN-4">
          <mxGeometry y="60" width="250" height="8" as="geometry" />
        </mxCell>
        <mxCell id="CQcg4G0rpS13cacDEzsN-7" value="+&amp;nbsp;ParamsBase(Loader*): ParamsBase&lt;br&gt;+ GetName(): vector&amp;lt;string&amp;gt;&lt;br&gt;+ GetType(string): int&lt;br&gt;+ GetInt(string): int&lt;br&gt;+ ...&lt;br&gt;+ Update(): void&lt;br&gt;+&amp;nbsp;GetIsChange(): bool&lt;br&gt;- Reload" style="text;strokeColor=none;fillColor=none;align=left;verticalAlign=top;spacingLeft=4;spacingRight=4;overflow=hidden;rotatable=0;points=[[0,0.5],[1,0.5]];portConstraint=eastwest;whiteSpace=wrap;html=1;" vertex="1" parent="CQcg4G0rpS13cacDEzsN-4">
          <mxGeometry y="68" width="250" height="132" as="geometry" />
        </mxCell>
        <mxCell id="CQcg4G0rpS13cacDEzsN-8" value="IFinder" style="swimlane;fontStyle=1;align=center;verticalAlign=top;childLayout=stackLayout;horizontal=1;startSize=26;horizontalStack=0;resizeParent=1;resizeParentMax=0;resizeLast=0;collapsible=1;marginBottom=0;whiteSpace=wrap;html=1;" vertex="1" parent="WIyWlLk6GJQsqaUBKTNV-1">
          <mxGeometry x="450" y="210" width="250" height="120" as="geometry" />
        </mxCell>
        <mxCell id="CQcg4G0rpS13cacDEzsN-10" value="" style="line;strokeWidth=1;fillColor=none;align=left;verticalAlign=middle;spacingTop=-1;spacingLeft=3;spacingRight=3;rotatable=0;labelPosition=right;points=[];portConstraint=eastwest;strokeColor=inherit;" vertex="1" parent="CQcg4G0rpS13cacDEzsN-8">
          <mxGeometry y="26" width="250" height="8" as="geometry" />
        </mxCell>
        <mxCell id="CQcg4G0rpS13cacDEzsN-11" value="+&amp;nbsp;IFinder(Loader*):&amp;nbsp;IFinder&lt;br&gt;+ TryOptimize(vector&amp;lt;string&amp;gt;): void&lt;br&gt;+ IsEnd(double): bool&lt;br&gt;+ SelectBestSuggest(): void&lt;br&gt;+ SelectBestSuggest(vector&amp;lt;string&amp;gt;): void" style="text;strokeColor=none;fillColor=none;align=left;verticalAlign=top;spacingLeft=4;spacingRight=4;overflow=hidden;rotatable=0;points=[[0,0.5],[1,0.5]];portConstraint=eastwest;whiteSpace=wrap;html=1;" vertex="1" parent="CQcg4G0rpS13cacDEzsN-8">
          <mxGeometry y="34" width="250" height="86" as="geometry" />
        </mxCell>
      </root>
    </mxGraphModel>
  </diagram>
</mxfile>
